<svg width="318" height="36" viewBox="0 0 318 36" fill="none" xmlns="http://www.w3.org/2000/svg">
<path d="M43.95 28V13.12H47.34L47.64 15.64C48.1 14.76 48.76 14.06 49.62 13.54C50.5 13.02 51.53 12.76 52.71 12.76C54.55 12.76 55.98 13.34 57 14.5C58.02 15.66 58.53 17.36 58.53 19.6V28H54.69V19.96C54.69 18.68 54.43 17.7 53.91 17.02C53.39 16.34 52.58 16 51.48 16C50.4 16 49.51 16.38 48.81 17.14C48.13 17.9 47.79 18.96 47.79 20.32V28H43.95ZM70.782 28.36C68.922 28.36 67.482 27.78 66.462 26.62C65.462 25.46 64.962 23.76 64.962 21.52V13.12H68.772V21.16C68.772 22.44 69.032 23.42 69.552 24.1C70.072 24.78 70.892 25.12 72.012 25.12C73.072 25.12 73.942 24.74 74.622 23.98C75.322 23.22 75.672 22.16 75.672 20.8V13.12H79.512V28H76.122L75.822 25.48C75.362 26.36 74.692 27.06 73.812 27.58C72.952 28.1 71.942 28.36 70.782 28.36ZM85.0439 28L90.4439 20.56L85.0439 13.12H89.1539L92.9339 18.4L96.6839 13.12H100.824L95.3939 20.56L100.824 28H96.6839L92.9339 22.72L89.1539 28H85.0439ZM112.9 28C111.34 28 110.09 27.62 109.15 26.86C108.21 26.1 107.74 24.75 107.74 22.81V16.33H105.19V13.12H107.74L108.19 9.13H111.58V13.12H115.6V16.33H111.58V22.84C111.58 23.56 111.73 24.06 112.03 24.34C112.35 24.6 112.89 24.73 113.65 24.73H115.51V28H112.9ZM120.637 31.33L128.137 4.69H131.887L124.357 31.33H120.637Z" fill="#003C3C"/>
<path d="M137.524 28V13.12H140.914L141.214 15.64C141.674 14.76 142.334 14.06 143.194 13.54C144.074 13.02 145.104 12.76 146.284 12.76C148.124 12.76 149.554 13.34 150.574 14.5C151.594 15.66 152.104 17.36 152.104 19.6V28H148.264V19.96C148.264 18.68 148.004 17.7 147.484 17.02C146.964 16.34 146.154 16 145.054 16C143.974 16 143.084 16.38 142.384 17.14C141.704 17.9 141.364 18.96 141.364 20.32V28H137.524ZM166.006 28.36C164.506 28.36 163.176 28.04 162.016 27.4C160.856 26.76 159.946 25.86 159.286 24.7C158.626 23.54 158.296 22.2 158.296 20.68C158.296 19.14 158.616 17.77 159.256 16.57C159.916 15.37 160.816 14.44 161.956 13.78C163.116 13.1 164.476 12.76 166.036 12.76C167.496 12.76 168.786 13.08 169.906 13.72C171.026 14.36 171.896 15.24 172.516 16.36C173.156 17.46 173.476 18.69 173.476 20.05C173.476 20.27 173.466 20.5 173.446 20.74C173.446 20.98 173.436 21.23 173.416 21.49H162.106C162.186 22.65 162.586 23.56 163.306 24.22C164.046 24.88 164.936 25.21 165.976 25.21C166.756 25.21 167.406 25.04 167.926 24.7C168.466 24.34 168.866 23.88 169.126 23.32H173.026C172.746 24.26 172.276 25.12 171.616 25.9C170.976 26.66 170.176 27.26 169.216 27.7C168.276 28.14 167.206 28.36 166.006 28.36ZM166.036 15.88C165.096 15.88 164.266 16.15 163.546 16.69C162.826 17.21 162.366 18.01 162.166 19.09H169.576C169.516 18.11 169.156 17.33 168.496 16.75C167.836 16.17 167.016 15.88 166.036 15.88ZM182.03 28L177.68 13.12H181.49L184.07 23.83L187.07 13.12H191.33L194.33 23.83L196.94 13.12H200.75L196.37 28H192.38L189.2 16.87L186.02 28H182.03ZM212.323 28.36C211.003 28.36 209.843 28.15 208.843 27.73C207.843 27.29 207.043 26.69 206.443 25.93C205.843 25.17 205.483 24.29 205.363 23.29H209.233C209.353 23.87 209.673 24.37 210.193 24.79C210.733 25.19 211.423 25.39 212.263 25.39C213.103 25.39 213.713 25.22 214.093 24.88C214.493 24.54 214.693 24.15 214.693 23.71C214.693 23.07 214.413 22.64 213.853 22.42C213.293 22.18 212.513 21.95 211.513 21.73C210.873 21.59 210.223 21.42 209.563 21.22C208.903 21.02 208.293 20.77 207.733 20.47C207.193 20.15 206.753 19.75 206.413 19.27C206.073 18.77 205.903 18.16 205.903 17.44C205.903 16.12 206.423 15.01 207.463 14.11C208.523 13.21 210.003 12.76 211.903 12.76C213.663 12.76 215.063 13.17 216.103 13.99C217.163 14.81 217.793 15.94 217.993 17.38H214.363C214.143 16.28 213.313 15.73 211.873 15.73C211.153 15.73 210.593 15.87 210.193 16.15C209.813 16.43 209.623 16.78 209.623 17.2C209.623 17.64 209.913 17.99 210.493 18.25C211.073 18.51 211.843 18.75 212.803 18.97C213.843 19.21 214.793 19.48 215.653 19.78C216.533 20.06 217.233 20.49 217.753 21.07C218.273 21.63 218.533 22.44 218.533 23.5C218.553 24.42 218.313 25.25 217.813 25.99C217.313 26.73 216.593 27.31 215.653 27.73C214.713 28.15 213.603 28.36 212.323 28.36ZM224.934 28V6.4H228.774V28H224.934ZM242.928 28.36C241.428 28.36 240.098 28.04 238.938 27.4C237.778 26.76 236.868 25.86 236.208 24.7C235.548 23.54 235.218 22.2 235.218 20.68C235.218 19.14 235.538 17.77 236.178 16.57C236.838 15.37 237.738 14.44 238.878 13.78C240.038 13.1 241.398 12.76 242.958 12.76C244.418 12.76 245.708 13.08 246.828 13.72C247.948 14.36 248.818 15.24 249.438 16.36C250.078 17.46 250.398 18.69 250.398 20.05C250.398 20.27 250.388 20.5 250.368 20.74C250.368 20.98 250.358 21.23 250.338 21.49H239.028C239.108 22.65 239.508 23.56 240.228 24.22C240.968 24.88 241.858 25.21 242.898 25.21C243.678 25.21 244.328 25.04 244.848 24.7C245.388 24.34 245.788 23.88 246.048 23.32H249.948C249.668 24.26 249.198 25.12 248.538 25.9C247.898 26.66 247.098 27.26 246.138 27.7C245.198 28.14 244.128 28.36 242.928 28.36ZM242.958 15.88C242.018 15.88 241.188 16.15 240.468 16.69C239.748 17.21 239.288 18.01 239.088 19.09H246.498C246.438 18.11 246.078 17.33 245.418 16.75C244.758 16.17 243.938 15.88 242.958 15.88ZM262.994 28C261.434 28 260.184 27.62 259.244 26.86C258.304 26.1 257.834 24.75 257.834 22.81V16.33H255.284V13.12H257.834L258.284 9.13H261.674V13.12H265.694V16.33H261.674V22.84C261.674 23.56 261.824 24.06 262.124 24.34C262.444 24.6 262.984 24.73 263.744 24.73H265.604V28H262.994ZM278.621 28C277.061 28 275.811 27.62 274.871 26.86C273.931 26.1 273.461 24.75 273.461 22.81V16.33H270.911V13.12H273.461L273.911 9.13H277.301V13.12H281.321V16.33H277.301V22.84C277.301 23.56 277.451 24.06 277.751 24.34C278.071 24.6 278.611 24.73 279.371 24.73H281.231V28H278.621ZM294.467 28.36C292.967 28.36 291.637 28.04 290.477 27.4C289.317 26.76 288.407 25.86 287.747 24.7C287.087 23.54 286.757 22.2 286.757 20.68C286.757 19.14 287.077 17.77 287.717 16.57C288.377 15.37 289.277 14.44 290.417 13.78C291.577 13.1 292.937 12.76 294.497 12.76C295.957 12.76 297.247 13.08 298.367 13.72C299.487 14.36 300.357 15.24 300.977 16.36C301.617 17.46 301.937 18.69 301.937 20.05C301.937 20.27 301.927 20.5 301.907 20.74C301.907 20.98 301.897 21.23 301.877 21.49H290.567C290.647 22.65 291.047 23.56 291.767 24.22C292.507 24.88 293.397 25.21 294.437 25.21C295.217 25.21 295.867 25.04 296.387 24.7C296.927 24.34 297.327 23.88 297.587 23.32H301.487C301.207 24.26 300.737 25.12 300.077 25.9C299.437 26.66 298.637 27.26 297.677 27.7C296.737 28.14 295.667 28.36 294.467 28.36ZM294.497 15.88C293.557 15.88 292.727 16.15 292.007 16.69C291.287 17.21 290.827 18.01 290.627 19.09H298.037C297.977 18.11 297.617 17.33 296.957 16.75C296.297 16.17 295.477 15.88 294.497 15.88ZM308.167 28V13.12H311.587L311.947 15.91C312.487 14.95 313.217 14.19 314.137 13.63C315.077 13.05 316.177 12.76 317.437 12.76V16.81H316.357C315.517 16.81 314.767 16.94 314.107 17.2C313.447 17.46 312.927 17.91 312.547 18.55C312.187 19.19 312.007 20.08 312.007 21.22V28H308.167Z" fill="#FF5F00"/>
<g clip-path="url(#clip0_804_140)">
<path d="M29.3884 13.1306L23.5694 8.83782C23.5239 8.80467 23.4737 8.79211 23.4247 8.77358V7.29304C23.4247 6.89768 23.1452 6.57748 22.7997 6.57748H20.4789L15.6312 3.10903C15.4287 2.96366 15.1711 2.96366 14.9684 3.10903L10.1207 6.57748H7.17487C6.82951 6.57748 6.5498 6.89748 6.5498 7.29304V8.77316C6.50087 8.7917 6.45051 8.80446 6.40518 8.83782L0.586168 13.1306C0.407911 13.2625 0.299805 13.4891 0.299805 13.732V32.3343C0.299805 32.7296 0.579333 33.0498 0.924876 33.0498H29.0497C29.395 33.0498 29.6747 32.7298 29.6747 32.3343V13.7322C29.6747 13.4891 29.5666 13.2628 29.3884 13.1306ZM15.2999 4.55971L18.1205 6.57748H12.4793L15.2999 4.55971ZM7.79994 8.00839H22.1748V24.1065C22.1748 24.1086 22.1759 24.1102 22.1759 24.1125L20.0616 25.5821L14.974 22.4054C14.7842 22.2881 14.5534 22.2887 14.3649 22.4124L9.72228 25.4495L7.79904 24.1127C7.79904 24.1106 7.80012 24.109 7.80012 24.1069L7.79994 8.00839ZM1.54995 14.122L6.5498 10.4341V23.2445L1.54995 19.7691V14.122ZM1.54995 21.4426L8.48185 26.2604L1.54995 30.7951V21.4426ZM2.80944 31.6191L14.6822 23.853L27.1198 31.6191H2.80944ZM28.4248 30.8039L21.3297 26.3738L28.4248 21.4424V30.8039ZM28.4248 19.7691L23.4247 23.2443V10.4341L28.4248 14.1222V19.7691Z" fill="#FF5F00"/>
<path d="M18.359 11.2423L13.694 16.5826L11.6411 14.2325L10 16.1112L13.694 20.3398L20 13.1209L18.359 11.2423Z" fill="#FF5F00"/>
</g>
<defs>
<clipPath id="clip0_804_140">
<rect width="30" height="30" fill="white" transform="translate(0 3)"/>
</clipPath>
</defs>
</svg>
